HIERARCHY
	ROOT pelvis
	{
		OFFSET 0 0 0 
		CHANNELS 6 Xposition Yposition Zposition Zrotation Xrotation Yrotation
		JOINT lfemur_phantom
		{
			OFFSET 0 0.0899607 0 
			CHANNELS 3 Zrotation Xrotation Yrotation
			JOINT lfemur
			{
				OFFSET 0 0 -0.426035 
				CHANNELS 3 Zrotation Xrotation Yrotation
				JOINT ltibia
				{
					OFFSET 0 0 -0.409933 
					CHANNELS 3 Zrotation Xrotation Yrotation
					JOINT lfoot
					{
						OFFSET 0.105631 0 0.00135511 
						CHANNELS 3 Zrotation Xrotation Yrotation
						End Site
						{
							OFFSET 0.0352103 0 0.000451703
						}
					}
				}
			}
		}
		JOINT rfemur_phantom
		{
			OFFSET 0 -0.0899607 0 
			CHANNELS 3 Zrotation Xrotation Yrotation
			JOINT rfemur
			{
				OFFSET 0 0 -0.430137 
				CHANNELS 3 Zrotation Xrotation Yrotation
				JOINT rtibia
				{
					OFFSET 0 0 -0.390377 
					CHANNELS 3 Zrotation Xrotation Yrotation
					JOINT rfoot
					{
						OFFSET 0.106801 0 -0.00121178 
						CHANNELS 3 Zrotation Xrotation Yrotation
						End Site
						{
							OFFSET 0.0356003 0 -0.000403927
						}
					}
				}
			}
		}
		JOINT lowerback_phantom
		{
			OFFSET -0.05 0 0.107967 
			CHANNELS 3 Zrotation Xrotation Yrotation
			JOINT lowerback
			{
				OFFSET 0.0167886 0 0.161801 
				CHANNELS 3 Zrotation Xrotation Yrotation
				JOINT upperback
				{
					OFFSET 0 0 0 
					CHANNELS 3 Zrotation Xrotation Yrotation
					JOINT lclavicle_phantom
					{
						OFFSET 0 0 0.199349 
						CHANNELS 3 Zrotation Xrotation Yrotation
						JOINT lclavicle
						{
							OFFSET 0 0.164108 -0.0174105 
							CHANNELS 3 Zrotation Xrotation Yrotation
							JOINT lhumerus
							{
								OFFSET 0 0 -0.275026 
								CHANNELS 3 Zrotation Xrotation Yrotation
								JOINT lradius
								{
									OFFSET 0 0 -0.248775 
									CHANNELS 3 Zrotation Xrotation Yrotation
									End Site
									{
										OFFSET 0 0 -0.082925
									}
								}
							}
						}
					}
					JOINT rclavicle_phantom
					{
						OFFSET 0 0 0.199349 
						CHANNELS 3 Zrotation Xrotation Yrotation
						JOINT rclavicle
						{
							OFFSET 0 -0.165322 -0.0298984 
							CHANNELS 3 Zrotation Xrotation Yrotation
							JOINT rhumerus
							{
								OFFSET 0 0 -0.273337 
								CHANNELS 3 Zrotation Xrotation Yrotation
								JOINT rradius
								{
									OFFSET 0 0 -0.254845 
									CHANNELS 3 Zrotation Xrotation Yrotation
									End Site
									{
										OFFSET 0 0 -0.0849483
									}
								}
							}
						}
					}
					JOINT LowerNeck_phantom
					{
						OFFSET 0 0 0.199349 
						CHANNELS 3 Zrotation Xrotation Yrotation
						JOINT LowerNeck
						{
							OFFSET -0.0127292 -0.000602123 0.105365 
							CHANNELS 3 Zrotation Xrotation Yrotation
							End Site
							{
								OFFSET -0.00424307 -0.000200708 0.0351217
							}
						}
					}
				}
			}
		}
	}
MOTION
Frames:	18
Frame Time:	0.0166667
0.0693232 0.881063 0.146172 96.8959 -65.1373 92.5729 35.5146 15.1333 -7.28014 24.0118 0.587532 1.31864 -2.04353 -10.031 33.4229 -6.21134e-006 2.64839e-006 14.4923 9.56126 0.252058 1.02345 -17.7883 -4.63887 14.148 4.94643 6.49869 7.59568 1.0509e-006 1.2615e-006 26.899 1.65273 5.28287 6.60348 4.81459 3.67859 1.14197 -0 0 -0 -0.64802 -9.3183 -0.104932 0.598302 24.2543 -17.6957 -2.99444 -3.36298 -131.724 1.10273e-006 -1.41048 -16.4324 6.56713 6.62936 -0.761441 5.63667 -35.2187 -19.3291 11.114 13.1202 -130.874 4.40637e-006 -0.373794 -13.8782 2.837 4.09995 34.8159 22.9247 -28.4678 -59.2017 
0.0688789 0.881144 0.146266 97.3496 -66.2669 93.1655 35.2674 15.3305 -7.22842 25.2855 0.77674 1.64378 -2.07179 -9.92662 33.1485 1.30206e-005 -4.88845e-006 14.4327 10.1125 0.21781 0.677862 -17.3034 -4.51715 14.1876 5.02867 6.63536 7.71026 8.83448e-007 2.52197e-008 26.9842 1.84016 5.38493 6.54504 4.95604 3.77226 1.14199 -0 0 -0 -0.66224 -9.33236 -0.107395 0.49676 24.2245 -17.1063 -3.14645 -3.52528 -131.797 -4.92422e-006 -1.38039 -16.4713 6.58432 6.57566 -0.757297 6.13377 -35.301 -19.2918 10.8947 12.9295 -130.703 -8.56028e-006 -0.152283 -13.7812 2.8688 4.03946 34.7792 23.3076 -28.7255 -59.1816 
0.0683798 0.881216 0.146315 97.9082 -67.5659 93.9202 34.558 15.5617 -7.00729 27.128 0.967174 1.88697 -2.07733 -9.7345 32.8922 -1.63167e-005 -2.08557e-006 14.3603 10.7753 0.160438 0.216152 -16.7417 -4.3931 14.2864 5.1092 6.77813 7.85435 -1.72639e-007 -4.60908e-007 27.0545 2.05096 5.47938 6.45965 5.09343 3.85819 1.12472 -0 0 -0 -0.681721 -9.35613 -0.110833 0.373364 24.2185 -16.4315 -3.25736 -3.64146 -131.863 -1.34179e-006 -1.28888 -16.5237 6.59193 6.5084 -0.750458 6.77708 -35.3827 -19.1704 10.7023 12.8073 -130.45 -3.15843e-006 0.118247 -13.7236 2.934 3.95877 34.7212 23.7933 -28.9981 -59.0944 
0.0677834 0.881287 0.146285 98.6224 -69.0235 94.8883 33.6834 15.7866 -6.76854 29.2584 1.22097 2.17823 -2.08115 -9.49563 32.5776 6.03963e-007 -9.62558e-007 14.288 11.5089 0.0766946 -0.340559 -16.1183 -4.25545 14.4011 5.21532 6.96308 8.02311 -3.4106e-006 -5.37134e-008 27.1405 2.27407 5.55217 6.3355 5.21907 3.97219 1.0796 -0 0 -0 -0.702152 -9.39557 -0.114632 0.201687 24.2161 -15.6359 -3.3386 -3.72455 -131.925 2.89821e-006 -1.20363 -16.5864 6.55546 6.38083 -0.731708 7.66308 -35.4211 -18.8877 10.5612 12.8043 -130.073 3.2064e-006 0.426966 -13.7166 3.01428 3.85523 34.6562 24.4 -29.3346 -58.906 
0.0671027 0.881356 0.146097 99.5536 -70.6166 96.0968 33.0777 15.9777 -6.68223 31.2564 1.61169 2.65307 -2.10941 -9.2782 32.1315 -2.95087e-006 2.65848e-007 14.2259 12.251 -0.0286569 -0.915853 -15.4354 -4.08439 14.4647 5.36218 7.20854 8.20297 -8.47715e-007 1.7905e-006 27.2681 2.47302 5.615 6.17315 5.34293 4.11642 1.04875 -0 0 -0 -0.744549 -9.44969 -0.122248 -0.0317972 24.1983 -14.7219 -3.45026 -3.84279 -131.975 3.44232e-006 -1.19827 -16.6687 6.46408 6.15972 -0.69652 8.83299 -35.3782 -18.3922 10.4612 12.9222 -129.545 -4.75291e-006 0.715344 -13.7579 3.06897 3.71148 34.6143 25.1312 -29.7632 -58.6697 
0.0663121 0.881466 0.145592 100.644 -72.3158 97.4813 31.8822 16.167 -6.335 33.8651 2.0197 3.00621 -2.10781 -8.99073 31.7475 2.7336e-006 -1.54974e-006 14.1265 12.9453 -0.198957 -1.46824 -14.6719 -3.86999 14.4551 5.54868 7.51362 8.39032 -2.09226e-006 7.52692e-007 27.4298 2.58121 5.64359 6.00474 5.49665 4.24309 1.0656 -0 0 -0 -0.817764 -9.49074 -0.134848 -0.356405 24.1625 -13.7706 -3.61386 -4.02283 -131.996 -5.19872e-006 -1.16909 -16.7416 6.34173 5.86359 -0.650503 10.244 -35.2531 -17.6911 10.3692 13.1185 -128.876 -1.03259e-005 0.962335 -13.8229 3.08 3.5394 34.5763 26.0094 -30.2841 -58.4422 
0.0654536 0.881544 0.144812 102.073 -74.0781 99.1997 31.4058 16.2818 -6.30408 35.8343 2.60818 3.60576 -2.14229 -8.76839 31.2127 -4.71965e-006 2.94717e-006 14.0259 13.617 -0.37942 -1.99834 -13.8337 -3.62156 14.3871 5.72361 7.81381 8.60126 1.32598e-006 -2.94958e-010 27.5795 2.57943 5.68362 5.88275 5.64327 4.31083 1.12799 -0 0 -0 -0.906512 -9.49212 -0.149507 -0.772187 24.0935 -12.887 -3.79426 -4.22637 -131.984 -7.13603e-006 -1.06289 -16.7601 6.23651 5.52318 -0.602613 11.8251 -35.054 -16.799 10.2447 13.3356 -128.081 -6.36287e-006 1.22817 -13.9003 3.09322 3.35069 34.5146 27.0301 -30.8706 -58.2638 
0.0645104 0.881576 0.143728 103.903 -75.8719 101.316 31.2073 16.3451 -6.39164 37.5434 3.30708 4.29268 -2.1855 -8.57043 30.6362 6.21681e-006 -1.76615e-006 13.881 14.2683 -0.579228 -2.53615 -12.9164 -3.35677 14.3228 5.85846 8.07076 8.83912 1.17833e-007 1.61985e-006 27.6827 2.52688 5.70491 5.8196 5.72034 4.35727 1.20576 -0 0 -0 -1.00659 -9.49422 -0.166052 -1.28748 24.0167 -12.161 -3.9443 -4.40377 -131.923 2.41402e-006 -0.995491 -16.7296 6.13396 5.148 -0.552488 13.5556 -34.7785 -15.6978 10.0577 13.5444 -127.138 -5.02208e-007 1.56727 -14.011 3.14334 3.12973 34.4244 28.1824 -31.4927 -58.1145 
0.0634775 0.881541 0.142332 106.273 -77.6715 103.97 31.0834 16.3619 -6.49356 39.1481 4.05702 4.96697 -2.21258 -8.33535 30.0766 5.02792e-006 1.56114e-006 13.6596 14.9142 -0.801271 -3.11075 -11.9718 -3.10251 14.3187 5.96977 8.3005 9.08223 1.22952e-006 2.51756e-007 27.7536 2.4689 5.71708 5.8057 5.69673 4.40081 1.28447 -0 0 -0 -1.1269 -9.5546 -0.187073 -1.86551 23.9651 -11.6891 -3.97202 -4.45477 -131.796 -6.9502e-006 -1.1056 -16.6531 5.98997 4.73353 -0.496099 15.4462 -34.4103 -14.3697 9.85967 13.8433 -125.995 2.08031e-006 2.01179 -14.1684 3.23178 2.84451 34.3279 29.429 -32.125 -58.014 
0.0622915 0.881428 0.140523 109.204 -79.4105 107.17 31.1431 16.2962 -6.65962 40.4698 4.86467 5.67638 -2.22718 -8.06909 29.5137 -5.90602e-006 -1.69122e-006 13.3789 15.4923 -1.07701 -3.70567 -11.0565 -2.87665 14.404 6.10395 8.5559 9.29142 -4.10346e-006 -1.32204e-006 27.8188 2.38327 5.71055 5.8469 5.56695 4.43844 1.38159 -0 0 -0 -1.30444 -9.69795 -0.219774 -2.41244 23.9836 -11.5996 -3.81037 -4.30319 -131.593 1.70985e-006 -1.40523 -16.4772 5.76628 4.26654 -0.430438 17.5158 -33.9198 -12.8278 9.6305 14.2457 -124.588 1.39416e-005 2.39891 -14.3438 3.30022 2.51707 34.2314 30.7576 -32.8163 -57.9485 
0.06083 0.881225 0.138289 112.642 -81.0037 110.863 31.3573 16.1277 -6.92649 41.4611 5.7349 6.45276 -2.24097 -7.82491 28.9638 -5.05274e-007 -6.54877e-007 13.0331 15.9153 -1.42764 -4.31824 -10.2092 -2.6871 14.5912 6.28581 8.86547 9.4455 2.27505e-006 5.01149e-007 27.8806 2.12661 5.61313 5.98293 5.40644 4.47585 1.47654 -0 0 -0 -1.56591 -9.87144 -0.26852 -2.81379 24.1448 -11.9882 -3.50694 -3.9994 -131.305 3.46099e-006 -1.78227 -16.2432 5.51412 3.7657 -0.363267 19.6925 -33.2867 -11.1127 9.26406 14.6051 -122.898 -7.14655e-008 2.59584 -14.4856 3.26256 2.22693 34.1281 32.2529 -33.6744 -57.7877 
0.0590366 0.880907 0.135676 116.461 -82.3837 114.905 31.6576 15.8743 -7.29214 42.1218 6.66 7.30866 -2.26935 -7.65688 28.4365 -1.16238e-005 -1.26715e-006 12.6442 16.1446 -1.84161 -4.92543 -9.44627 -2.53332 14.8776 6.4943 9.19827 9.54421 3.1884e-006 2.47259e-008 27.9054 1.63144 5.38352 6.25145 5.21882 4.50807 1.54963 -0 0 -0 -1.8694 -10.0324 -0.325772 -3.01219 24.5789 -12.9208 -3.1625 -3.65837 -130.89 3.02253e-007 -2.15712 -16.0839 5.31789 3.31261 -0.30817 21.8288 -32.5441 -9.25667 8.69933 14.7529 -121 8.26506e-007 2.64508 -14.5046 3.24868 1.97775 34.0419 33.8133 -34.602 -57.6445 
0.0570024 0.880473 0.13271 120.409 -83.5189 118.99 31.9821 15.5808 -7.69288 42.4495 7.60236 8.22979 -2.31079 -7.55647 27.9409 -1.1642e-006 6.78767e-008 12.22 16.2204 -2.28404 -5.46984 -8.78201 -2.41548 15.2596 6.67734 9.48412 9.60619 5.12092e-007 -1.13232e-006 27.861 0.95137 5.08911 6.66903 4.9448 4.4882 1.61177 -0 0 -0 -2.19429 -10.1731 -0.387744 -2.92179 25.3576 -14.4244 -2.78288 -3.28702 -130.29 1.02071e-006 -2.47974 -16.0736 5.19739 2.95705 -0.268856 23.8046 -31.7467 -7.27022 8.01262 14.7126 -118.998 9.68223e-006 2.71939 -14.4156 3.50418 1.64061 34.0048 35.1596 -35.3181 -57.8684 
0.0548226 0.879977 0.129329 123.757 -84.3905 122.358 32.3443 15.2553 -8.09084 42.4202 8.51268 9.20178 -2.35792 -7.49305 27.476 -1.57548e-005 -1.00223e-007 11.7654 16.2215 -2.74375 -5.90353 -8.25629 -2.34326 15.7362 6.79147 9.66747 9.6566 4.48386e-007 -1.05539e-006 27.732 0.181309 4.80581 7.20719 4.50464 4.39131 1.70863 -0 0 -0 -2.51691 -10.3237 -0.451336 -2.45276 26.5144 -16.5371 -2.34458 -2.85446 -129.426 3.32992e-006 -2.63886 -16.1582 5.10374 2.69732 -0.240816 25.5899 -30.9539 -5.1573 7.31838 14.6495 -116.922 3.42181e-006 2.89165 -14.397 3.93878 1.31234 33.9774 36.2926 -35.9708 -58.2705 
0.0524664 0.879442 0.125556 125.215 -84.9833 123.756 32.7894 14.8568 -8.52892 42.0184 9.36134 10.2337 -2.40597 -7.43191 27.0044 -6.12045e-006 5.89112e-006 11.2694 16.2088 -3.23508 -6.25005 -7.95241 -2.34461 16.3228 6.83068 9.73305 9.68055 -3.62733e-006 2.47885e-007 27.5235 -0.642835 4.48171 7.87341 3.89445 4.28947 1.77248 -0 0 -0 -2.79779 -10.4425 -0.507486 -1.58752 28.0016 -19.2437 -1.91881 -2.44142 -128.184 4.76165e-006 -2.57251 -16.3196 4.98354 2.48801 -0.216883 27.1406 -30.1682 -2.9403 6.65198 14.6358 -114.776 -1.05532e-006 3.13789 -14.4642 4.43924 1.05527 33.9147 37.3119 -36.6588 -58.6165 
0.0498541 0.878861 0.121458 123.343 -85.2611 121.815 33.4296 14.329 -9.11503 41.1373 10.1214 11.3751 -2.45781 -7.35567 26.4656 -1.03795e-005 -2.14547e-006 10.8043 16.163 -3.77884 -6.55972 -7.93545 -2.44395 17.0096 6.80891 9.692 9.65448 9.00199e-007 -3.20831e-007 27.2531 -1.55468 4.11132 8.53945 3.12533 4.14989 1.82091 -0 0 -0 -2.9294 -10.425 -0.530519 -0.408712 29.723 -22.4648 -1.56851 -2.12588 -126.434 -1.93734e-006 -2.35468 -16.6063 4.81059 2.36151 -0.198683 28.3598 -29.3713 -0.614726 5.94683 14.4894 -112.603 -1.64849e-005 3.45703 -14.3753 4.93249 1.10179 33.8168 38.2779 -37.5466 -58.6292 
0.0469599 0.878224 0.117072 117.725 -85.1481 116.178 34.331 13.6381 -9.91995 39.6648 10.7472 12.6745 -2.51058 -7.25293 25.8482 -1.24903e-005 -6.64091e-007 10.3792 15.9949 -4.39051 -6.87411 -8.20256 -2.65045 17.7862 6.74632 9.57099 9.57 3.55304e-006 2.41048e-007 26.9481 -2.59381 3.72036 9.08024 2.25238 3.92041 1.8591 -0 0 -0 -2.89424 -10.1878 -0.51234 1.06257 31.5688 -26.0558 -1.25651 -1.85377 -124.139 -1.65186e-006 -2.15658 -16.9387 4.56358 2.33982 -0.186707 29.1623 -28.5408 1.85817 5.16846 14.0488 -110.436 1.76252e-006 3.83046 -14.1014 5.49598 1.46493 33.7634 39.0671 -38.5246 -58.4565 
0.0438492 0.877526 0.112377 109.855 -84.5465 108.348 35.3615 12.783 -10.8864 37.6843 11.2019 14.1168 -2.55643 -7.12295 25.1978 -5.40118e-006 7.70747e-007 9.94947 15.6034 -5.08167 -7.20247 -8.67425 -2.95423 18.666 6.6662 9.40757 9.43435 -3.14423e-009 -4.92489e-008 26.6098 -3.73081 3.33866 9.45562 1.26682 3.59074 1.88753 -0 0 -0 -2.70761 -9.73552 -0.458187 2.89397 33.479 -29.9046 -0.858314 -1.406 -121.407 -8.56087e-006 -2.07519 -17.1041 4.24226 2.41061 -0.178759 29.5494 -27.7177 4.4966 4.38702 13.4617 -108.24 -1.10619e-006 4.16404 -13.9034 6.16293 2.05679 33.8057 39.6045 -39.5089 -58.2792 
